<svg width="63" height="76" viewBox="0 0 63 76" fill="none" xmlns="http://www.w3.org/2000/svg">
<path fill-rule="evenodd" clip-rule="evenodd" d="M13.8177 57H9.99452V61.75H13.8177C15.2514 61.75 16.2072 60.8 16.2072 59.375C16.2072 57.95 15.2514 57 13.8177 57ZM38.6685 0H0.436523V76H62.5635V23.75L38.6685 0ZM20.5083 59.85C20.5083 63.65 17.6409 66.5 13.8177 66.5H9.99452V71.25H5.21552V52.25H13.8177C17.6409 52.25 20.5083 55.1 20.5083 58.9V59.85ZM40.1022 62.225C40.1022 66.975 36.279 71.25 31.0221 71.25H24.3315V52.25H31.0221C35.8011 52.25 40.1022 56.05 40.1022 61.275V62.225ZM57.7845 57H48.2265V61.75H55.395V66.5H48.2265V71.25H43.4475V52.25H57.7845V57ZM57.7845 47.5H5.21552V4.75H38.6685V23.75H57.7845V47.5ZM31.0221 57H29.1105V66.5H31.0221C33.8895 66.5 35.8011 64.6 35.8011 61.75C35.8011 58.9 33.4116 57 31.0221 57Z" fill="#2B81BA"/>
</svg>
