<svg id="Layer_1" data-name="Layer 1" xmlns="http://www.w3.org/2000/svg" viewBox="0 0 283.6 353"><defs><style>.cls-1{fill:#2b80ba;}</style></defs><path class="cls-1" d="M200,305.69c-78.19,0-141.8-64.53-141.8-143.85S121.81,18,200,18,341.8,82.53,341.8,161.84,278.19,305.69,200,305.69Zm0-274.61c-71,0-128.72,58.66-128.72,130.76S129,292.61,200,292.61,328.72,234,328.72,161.84,271,31.08,200,31.08Z" transform="translate(-58.2 -18)"/><path class="cls-1" d="M270.79,66.19q-10.5,30.53-21,61.06c7.52,6.75,29.61,29.17,29.23,62-.45,39-32.53,79.27-77.75,79.27S124,228.22,123.54,189.23c-.37-32,20.68-54.17,28.72-61.52Q141.37,96.47,130.5,65.22a120.67,120.67,0,0,0-48,96.62c0,65.74,53.06,119.83,117.53,119.83s117.53-54.09,117.53-119.83A120.74,120.74,0,0,0,270.79,66.19Z" transform="translate(-58.2 -18)"/><path class="cls-1" d="M66.27,369l-7.65-.06.23-31.53,7.65.06Z" transform="translate(-58.2 -18)"/><path class="cls-1" d="M74.58,337.49l9,.07L98,361.83l-.65.56.18-24.72,7.06.05-.23,31.51-9.08-.07-14.35-23.9.65-.56-.17,24.36L74.35,369Z" transform="translate(-58.2 -18)"/><path class="cls-1" d="M110,337.76l28.72.22,0,5.73-28.72-.22Zm10.65,2.66,7.38.06-.21,28.95-7.38-.06Z" transform="translate(-58.2 -18)"/><path class="cls-1" d="M143,338l7.38.06-.23,31.55-7.38-.06Zm2.84,13.16,13.63.11a4.27,4.27,0,0,0,2-.44,3.21,3.21,0,0,0,1.34-1.29,4.09,4.09,0,0,0,.51-1.95,3.91,3.91,0,0,0-.45-2,3.23,3.23,0,0,0-1.33-1.31,4.38,4.38,0,0,0-2-.47l-13.63-.1,0-5.73,14.22.11a13,13,0,0,1,5.68,1.22,8.94,8.94,0,0,1,3.77,3.33,9.12,9.12,0,0,1,1.31,5,9,9,0,0,1-1.38,4.94,8.9,8.9,0,0,1-3.84,3.28A13.13,13.13,0,0,1,160,357l-14.22-.11Zm8.21,4.82L162,355l10.45,14.74-8.94-.07Z" transform="translate(-58.2 -18)"/><path class="cls-1" d="M183.66,368.74a11.57,11.57,0,0,1-5-4.12,10.62,10.62,0,0,1-1.73-6.11l.07-8.94a10.59,10.59,0,0,1,1.82-6.09,11.55,11.55,0,0,1,5.05-4,20.28,20.28,0,0,1,15,.12,11.45,11.45,0,0,1,5,4.11,10.65,10.65,0,0,1,1.73,6.12l-.06,8.93a10.7,10.7,0,0,1-1.82,6.09,11.51,11.51,0,0,1-5.06,4,20.19,20.19,0,0,1-15-.11Zm11-5.1a5.32,5.32,0,0,0,2.34-1.92,5.2,5.2,0,0,0,.85-2.9l.06-9.24a5.1,5.1,0,0,0-.8-2.91,5.25,5.25,0,0,0-2.31-2,8.31,8.31,0,0,0-3.5-.71,8.56,8.56,0,0,0-3.51.65,5.33,5.33,0,0,0-2.34,1.93,5.22,5.22,0,0,0-.84,2.9l-.07,9.23a5.23,5.23,0,0,0,.8,2.92,5.35,5.35,0,0,0,2.32,2,9.41,9.41,0,0,0,7,.05Z" transform="translate(-58.2 -18)"/><path class="cls-1" d="M221.7,370.47,219,370a27.1,27.1,0,0,1-5-1.37,20.7,20.7,0,0,1-4.2-2.15l3.46-4.87a18.14,18.14,0,0,0,5.21,2.35,23,23,0,0,0,6.08.86,12.79,12.79,0,0,0,5.61-.95,3,3,0,0,0,2-2.77v0a2.44,2.44,0,0,0-.87-2A5.65,5.65,0,0,0,229,358a33.75,33.75,0,0,0-3.66-.66l-.15,0-.14,0-.6-.07a45.07,45.07,0,0,1-6.51-1.3,9.75,9.75,0,0,1-4.37-2.66,7.38,7.38,0,0,1-1.76-5.34v0a8.19,8.19,0,0,1,1.73-5.21,10.45,10.45,0,0,1,5-3.27,23.75,23.75,0,0,1,7.82-1.08,24.53,24.53,0,0,1,4.29.42,28.91,28.91,0,0,1,4.29,1.16,27,27,0,0,1,4,1.81l-3.16,5a22.12,22.12,0,0,0-4.71-2,17.63,17.63,0,0,0-4.73-.73,12.49,12.49,0,0,0-5.26.86,2.78,2.78,0,0,0-1.87,2.51v0a2.62,2.62,0,0,0,.95,2.16,6.16,6.16,0,0,0,2.39,1.18c.95.25,2.29.52,4,.81l.21,0a.78.78,0,0,1,.22,0,1.55,1.55,0,0,1,.31.06l.31.05a39.26,39.26,0,0,1,6.2,1.47,9.65,9.65,0,0,1,4.14,2.72,7.31,7.31,0,0,1,1.63,5.08v0a7.87,7.87,0,0,1-1.79,5.15,10.74,10.74,0,0,1-5.13,3.23,25.37,25.37,0,0,1-8.07,1.07Z" transform="translate(-58.2 -18)"/><path class="cls-1" d="M254,370.71l-3.17-1.4a10.45,10.45,0,0,1-4.82-4.05,11.61,11.61,0,0,1-1.62-6.37l.06-8.66a11.64,11.64,0,0,1,1.72-6.35,10.49,10.49,0,0,1,4.88-4,18.89,18.89,0,0,1,7.66-1.33,16.25,16.25,0,0,1,6.59,1.33,12.26,12.26,0,0,1,4.78,3.75,14.33,14.33,0,0,1,2.58,5.91L265,349.5a7.38,7.38,0,0,0-1.31-2.68,6,6,0,0,0-2.17-1.7,6.82,6.82,0,0,0-2.87-.61,8.21,8.21,0,0,0-3.53.66,4.9,4.9,0,0,0-2.24,2,6.13,6.13,0,0,0-.79,3.15L252,359a6.17,6.17,0,0,0,.74,3.15,5,5,0,0,0,2.21,2,8.29,8.29,0,0,0,3.52.71,7.21,7.21,0,0,0,2.92-.56,5.75,5.75,0,0,0,2.19-1.66,6.86,6.86,0,0,0,1.31-2.68l7.66.06a14.51,14.51,0,0,1-2.7,5.87,12.37,12.37,0,0,1-4.82,3.68,16.12,16.12,0,0,1-6.6,1.23Z" transform="translate(-58.2 -18)"/><path class="cls-1" d="M284.14,369.5a11.62,11.62,0,0,1-5-4.11,10.67,10.67,0,0,1-1.73-6.12l.07-8.94a10.59,10.59,0,0,1,1.82-6.09,11.62,11.62,0,0,1,5.05-4,20.28,20.28,0,0,1,15,.12,11.59,11.59,0,0,1,5,4.11,10.67,10.67,0,0,1,1.73,6.12l-.06,8.94a10.74,10.74,0,0,1-1.82,6.09,11.56,11.56,0,0,1-5.06,4,20.19,20.19,0,0,1-15-.11Zm11-5.1a5.32,5.32,0,0,0,2.34-1.92,5.15,5.15,0,0,0,.85-2.9l.06-9.24a5.1,5.1,0,0,0-.8-2.91,5.32,5.32,0,0,0-2.31-2,9.31,9.31,0,0,0-7-.05,5.38,5.38,0,0,0-2.34,1.92,5.22,5.22,0,0,0-.84,2.9l-.07,9.24a5.18,5.18,0,0,0,.8,2.91,5.29,5.29,0,0,0,2.32,2,9.28,9.28,0,0,0,7,0Z" transform="translate(-58.2 -18)"/><path class="cls-1" d="M313.44,339.31l7.38.05-.23,31.53-7.38-.05Zm3.27,13.6,12.52.09a5.29,5.29,0,0,0,2.34-.47,3.75,3.75,0,0,0,1.58-1.36,3.61,3.61,0,0,0,.58-2,3.85,3.85,0,0,0-.53-2.07,3.7,3.7,0,0,0-1.55-1.4,5.47,5.47,0,0,0-2.36-.51l-12.52-.09,0-5.73,12.34.1a16.11,16.11,0,0,1,6.44,1.25,10,10,0,0,1,4.3,3.43,8.64,8.64,0,0,1,1.5,5.08,8.54,8.54,0,0,1-1.58,5.05,9.8,9.8,0,0,1-4.35,3.34,16.06,16.06,0,0,1-6.46,1.15l-12.33-.1Z" transform="translate(-58.2 -18)"/><path class="cls-1" d="M137.75,59.4l63,207.52Q195.35,154.46,189.93,42a96.38,96.38,0,0,0-28.42,5.26A97.75,97.75,0,0,0,137.75,59.4Z" transform="translate(-58.2 -18)"/><line class="cls-1" x1="156.51" y1="107.53" x2="156.51" y2="107.53"/><path class="cls-1" d="M263.27,59.69,200.78,266.92,211,42.49a96.23,96.23,0,0,1,28.43,5.17A97.4,97.4,0,0,1,263.27,59.69Z" transform="translate(-58.2 -18)"/><line class="cls-1" x1="129.88" y1="108.61" x2="129.88" y2="108.61"/></svg>