<svg width="11" height="12" viewBox="0 0 11 12" fill="none" xmlns="http://www.w3.org/2000/svg">
<path d="M7.3338 8.52832L8.28101 7.49459C8.40859 7.35708 8.57 7.26296 8.74564 7.22363C8.92129 7.18431 9.10362 7.20149 9.2705 7.27307L10.4249 7.77609C10.5935 7.8508 10.7382 7.97831 10.8405 8.14256C10.9428 8.30681 10.9983 8.50045 11 8.69907V11.0065C10.999 11.1416 10.973 11.2751 10.9235 11.399C10.874 11.5228 10.802 11.6345 10.712 11.7272C10.6219 11.8199 10.5155 11.8917 10.3994 11.9384C10.2832 11.985 10.1595 12.0056 10.0359 11.9987C1.94656 11.4495 0.314319 3.97343 0.00563143 1.11221C-0.00869808 0.971699 0.00439441 0.829474 0.0440475 0.694886C0.0837006 0.560298 0.149016 0.436399 0.235696 0.331338C0.322376 0.226277 0.428457 0.142436 0.546959 0.0853313C0.665462 0.0282263 0.7937 -0.00084875 0.923238 1.88606e-05H2.96565C3.14791 0.000607621 3.32584 0.0606895 3.47655 0.172537C3.62727 0.284384 3.74387 0.442881 3.81137 0.627643L4.27229 1.88751C4.34006 2.0689 4.35735 2.26807 4.322 2.46013C4.28665 2.65218 4.20024 2.82862 4.07355 2.96739L3.12634 4.00112C3.12634 4.00112 3.67183 8.02991 7.3338 8.52832Z" fill="white"/>
</svg>
