<svg width="18" height="16" viewBox="0 0 18 16" fill="none" xmlns="http://www.w3.org/2000/svg">
<path d="M15.8596 12.3317C15.0526 12.9665 13.883 13.4218 12.3509 13.6976C10.8187 13.9733 9.23977 14.054 7.61404 13.9395L4.52632 16V13.4244C3.50877 13.1434 2.71345 12.7792 2.14035 12.3317C1.46199 11.801 0.935673 11.0387 0.561404 10.0449C0.187134 9.05106 0 8.03642 0 7.00098C0 5.96553 0.187134 4.95089 0.561404 3.95707C0.935673 2.96325 1.46491 2.19837 2.14912 1.66244C2.83333 1.1265 3.81287 0.715447 5.08772 0.429268C6.36257 0.143089 7.66667 0 9 0C10.3333 0 11.6374 0.143089 12.9123 0.429268C14.1871 0.715447 15.1667 1.1265 15.8509 1.66244C16.5351 2.19837 17.0643 2.96325 17.4386 3.95707C17.8129 4.95089 18 5.96553 18 7.00098C18 8.03642 17.8129 9.05106 17.4386 10.0449C17.0643 11.0387 16.538 11.801 15.8596 12.3317ZM11.2105 8.50732L12.3509 8.67902C12.2573 7.43024 11.7164 6.36358 10.7281 5.47902C9.73977 4.59447 8.54386 4.11057 7.14035 4.02732L7.33333 5.04195C8.33918 5.15642 9.20468 5.53626 9.92982 6.18146C10.655 6.82667 11.0819 7.60195 11.2105 8.50732ZM7.52632 6.0878L7.73684 7.21171C8.20468 7.41984 8.54971 7.72683 8.77193 8.13268L10.0351 8.32C9.89474 7.76846 9.59649 7.29236 9.14035 6.89171C8.68421 6.49106 8.1462 6.22309 7.52632 6.0878ZM5.64912 7.00878V6.00976C5.64912 5.83285 5.57602 5.65593 5.42982 5.47902C5.28363 5.30211 5.12865 5.17463 4.96491 5.09659C4.80117 5.01854 4.67836 5.01073 4.59649 5.07317L3.78947 5.80683C3.33333 6.21268 3.26608 6.84488 3.58772 7.70341C3.90936 8.56195 4.52339 9.39447 5.42982 10.201C6.33626 11.0075 7.27193 11.5538 8.23684 11.84C9.20175 12.1262 9.90643 12.0663 10.3509 11.6605L11.1754 10.9268C11.2573 10.8644 11.2544 10.7577 11.1667 10.6068C11.0789 10.4559 10.9357 10.318 10.7368 10.1932C10.538 10.0683 10.3392 10.0059 10.1404 10.0059H9.01754L8.36842 10.5054C7.8538 10.3805 7.21345 9.97724 6.44737 9.29561C5.68129 8.61398 5.22807 8.03902 5.08772 7.57073L5.64912 7.00878ZM6.77193 2.01366L6.94737 3.02829C8.11696 3.04911 9.19883 3.32228 10.193 3.8478C11.1871 4.37333 11.9766 5.07577 12.5614 5.95512C13.1462 6.83447 13.4561 7.79447 13.4912 8.83512L14.6316 9.00683C14.6316 8.05984 14.424 7.15447 14.0088 6.29073C13.5936 5.42699 13.0351 4.68293 12.3333 4.05854C11.6316 3.43415 10.7953 2.93724 9.82456 2.5678C8.8538 2.19837 7.83626 2.01366 6.77193 2.01366Z" fill="white"/>
</svg>
