<svg width="16" height="17" viewBox="0 0 16 17" fill="none" xmlns="http://www.w3.org/2000/svg">
<path d="M14.8034 4.61983C12.41 0.9198 7.52348 -0.180208 3.73392 2.11981C0.0440916 4.41983 -1.15261 9.41986 1.24079 13.1199L1.44024 13.4199L0.642443 16.4199L3.6342 15.6199L3.93337 15.8199C5.2298 16.5199 6.62595 16.9199 8.02211 16.9199C9.51799 16.9199 11.0139 16.5199 12.3103 15.7199C16.0001 13.3199 17.0971 8.41986 14.8034 4.61983ZM12.7092 12.3199C12.3103 12.9199 11.8117 13.3199 11.1136 13.4199C10.7147 13.4199 10.2161 13.6199 8.22156 12.8199C6.52623 12.0199 5.13008 10.7199 4.13282 9.21986C3.53447 8.51986 3.2353 7.61985 3.13557 6.71984C3.13557 5.91984 3.43475 5.21983 3.93337 4.71983C4.13282 4.51983 4.33227 4.41983 4.53173 4.41983H5.03035C5.2298 4.41983 5.42925 4.41983 5.52898 4.81983C5.72843 5.31983 6.22705 6.51984 6.22705 6.61984C6.32678 6.71984 6.32678 6.91985 6.22705 7.01985C6.32678 7.21985 6.22705 7.41985 6.12733 7.51985C6.0276 7.61985 5.92788 7.81985 5.82815 7.91985C5.6287 8.01985 5.52898 8.21986 5.6287 8.41986C6.0276 9.01986 6.52623 9.61987 7.02486 10.1199C7.62321 10.6199 8.22156 11.0199 8.91963 11.3199C9.11908 11.4199 9.31853 11.4199 9.41826 11.2199C9.51798 11.0199 10.0166 10.5199 10.2161 10.3199C10.4155 10.1199 10.5152 10.1199 10.7147 10.2199L12.3103 11.0199C12.5097 11.1199 12.7092 11.2199 12.8089 11.3199C12.9086 11.6199 12.9086 12.0199 12.7092 12.3199Z" fill="white"/>
</svg>
