<svg width="29" height="29" viewBox="0 0 29 29" fill="none" xmlns="http://www.w3.org/2000/svg">
<path d="M14.4375 0.0625C6.46465 0.0625 0 6.52715 0 14.5C0 22.4729 6.46465 28.9375 14.4375 28.9375C22.4104 28.9375 28.875 22.4729 28.875 14.5C28.875 6.52715 22.4104 0.0625 14.4375 0.0625ZM20.1738 17.9482H18.6624C18.3337 17.9482 18.0211 17.7903 17.8277 17.5229L14.4375 12.8371L11.0473 17.5229C10.8539 17.7903 10.5445 17.9482 10.2126 17.9482H8.70117C8.4917 17.9482 8.36924 17.7098 8.4917 17.539L14.228 9.61123C14.3312 9.46943 14.5406 9.46943 14.6438 9.61123L20.3801 17.539C20.5058 17.7098 20.3833 17.9482 20.1738 17.9482Z" fill="white"/>
</svg>
