<svg width="15" height="17" viewBox="0 0 15 17" fill="none" xmlns="http://www.w3.org/2000/svg">
<path d="M6.23507 10.2634C7.15452 11.2793 8.26704 12.0637 9.49447 12.5614L11.155 11.1222C11.2042 11.0852 11.2626 11.0655 11.3224 11.0655C11.3822 11.0655 11.4405 11.0852 11.4898 11.1222L14.573 13.2859C14.69 13.3625 14.7891 13.4678 14.8624 13.5933C14.9357 13.7188 14.9812 13.8612 14.9953 14.0092C15.0094 14.1572 14.9917 14.3067 14.9436 14.4459C14.8956 14.5852 14.8184 14.7103 14.7183 14.8115L13.2736 16.366C13.0667 16.5886 12.8124 16.752 12.5335 16.8416C12.2545 16.9312 11.9595 16.9441 11.6748 16.8793C8.83476 16.2404 6.21707 14.7441 4.12085 12.5614C2.07116 10.3571 0.652789 7.55217 0.0377852 4.48705C-0.0229692 4.18174 -0.0102889 3.86452 0.0745972 3.56613C0.159483 3.26773 0.313697 2.99828 0.522292 2.78389L2.01986 1.21027C2.11253 1.10654 2.22555 1.02699 2.35044 0.977573C2.47534 0.928159 2.60888 0.910162 2.74107 0.924929C2.87326 0.939697 3.00067 0.986846 3.11376 1.06285C3.22685 1.13885 3.32268 1.24173 3.3941 1.36379L5.44664 4.67895C5.48204 4.73101 5.50115 4.79408 5.50115 4.85886C5.50115 4.92365 5.48204 4.98671 5.44664 5.03877L4.09443 6.80909C4.56377 8.1193 5.295 9.29926 6.23507 10.2634Z" fill="white"/>
</svg>
