<svg width="20" height="28" viewBox="0 0 20 28" fill="none" xmlns="http://www.w3.org/2000/svg">
<path d="M10.0294 23.1509L5.0343 18.0782L6.65122 16.6088L10.0251 20.0351L13.3789 16.6109L14.9999 18.0761L10.0294 23.1509ZM19.253 21.1119V6.57243C19.253 3.03549 16.2576 0.157959 12.5757 0.157959H7.45653C3.77471 0.157959 0.779297 3.03549 0.779297 6.57243V21.1119C0.779297 24.6488 3.77471 27.5264 7.45653 27.5264H12.5757C16.2576 27.5264 19.253 24.6488 19.253 21.1119ZM12.5757 2.29612C15.0304 2.29612 17.0272 4.2144 17.0272 6.57243V21.1119C17.0272 23.4699 15.0304 25.3882 12.5757 25.3882H7.45653C5.00191 25.3882 3.00504 23.4699 3.00504 21.1119V6.57243C3.00504 4.2144 5.00191 2.29612 7.45653 2.29612H12.5757ZM10.0161 4.48773C9.40145 4.48773 8.90327 4.96631 8.90327 5.55681C8.90327 6.14731 9.40145 6.62589 10.0161 6.62589C10.6308 6.62589 11.129 6.14731 11.129 5.55681C11.129 4.96631 10.6308 4.48773 10.0161 4.48773ZM10.0161 8.76404C9.40145 8.76404 8.90327 9.24262 8.90327 9.83312C8.90327 10.4236 9.40145 10.9022 10.0161 10.9022C10.6308 10.9022 11.129 10.4236 11.129 9.83312C11.129 9.24262 10.6308 8.76404 10.0161 8.76404ZM10.0161 13.0404C9.40145 13.0404 8.90327 13.5189 8.90327 14.1094C8.90327 14.6999 9.40145 15.1785 10.0161 15.1785C10.6308 15.1785 11.129 14.6999 11.129 14.1094C11.129 13.5189 10.6308 13.0404 10.0161 13.0404Z" fill="url(#paint0_linear_453_5)"/>
<defs>
<linearGradient id="paint0_linear_453_5" x1="0.779297" y1="0.157959" x2="22.3935" y2="2.91621" gradientUnits="userSpaceOnUse">
<stop stop-color="#1078C4"/>
<stop offset="1" stop-color="#0696C4"/>
</linearGradient>
</defs>
</svg>
